PathFileType	4	(X/Y/Z)	C:\Git\research_data\Projects\torsion_deformities_healthy_kinematics\simulations\TD01\pre\dynamic_12_l\marker_experimental.trc
DataRate	CameraRate	NumFrames	NumMarkers	Units	OrigDataRate	OrigDataStartFrame	OrigNumFrames
200	200	7	30	mm	200	457	609
Frame#	Time	C7			T10			CLAV			STRN			RBAK			LASI			RASI			SACR			RT1			RT2			RT3			RKNE			RS1			RS2			RS3			RANK			RHEE			RTOE			LT1			LT2			LT3			LKNE			LS1			LS2			LS3			LANK			LHEE			LTOE			RHJC			LHJC		
		X1	Y1	Z1	X2	Y2	Z2	X3	Y3	Z3	X4	Y4	Z4	X5	Y5	Z5	X6	Y6	Z6	X7	Y7	Z7	X8	Y8	Z8	X9	Y9	Z9	X10	Y10	Z10	X11	Y11	Z11	X12	Y12	Z12	X13	Y13	Z13	X14	Y14	Z14	X15	Y15	Z15	X16	Y16	Z16	X17	Y17	Z17	X18	Y18	Z18	X19	Y19	Z19	X20	Y20	Z20	X21	Y21	Z21	X22	Y22	Z22	X23	Y23	Z23	X24	Y24	Z24	X25	Y25	Z25	X26	Y26	Z26	X27	Y27	Z27	X28	Y28	Z28	X29	Y29	Z29	X30	Y30	Z30	

457	2.280000	1626.782104	1255.510132	197.463501	1581.300903	1071.646118	200.604675	1751.068237	1206.716431	194.291718	1789.024170	1072.393066	188.897491	1597.262695	1187.004272	294.123169	1717.230225	867.038940	95.920914	1725.955811	872.060120	298.729828	1559.573730	906.842346	206.460663	1760.735718	698.608398	351.682190	1754.949463	633.007019	361.302795	1803.349243	648.375732	345.024078	1836.238892	508.601196	344.991791	1764.256348	385.788116	362.297668	1733.409180	328.106415	349.788147	1782.874756	322.171692	356.285797	1712.388794	132.751541	323.735504	1675.657471	125.421837	263.100372	1840.667236	86.998940	333.152466	1660.816406	670.542908	66.330162	1629.359497	612.450500	76.732735	1679.751953	610.499878	88.308311	1635.939087	464.219330	115.705132	1566.931885	332.549530	96.748848	1544.416504	271.419983	108.315811	1595.495850	275.121399	114.432472	1516.776123	97.972687	148.271027	1475.130981	94.205467	189.303421	1661.726685	66.010178	177.037918	1660.249652	812.556213	275.776477	1653.863392	808.881209	127.340548	
458	2.285000	1633.335693	1254.994995	197.635544	1587.682617	1071.166016	200.957840	1757.590332	1206.063110	194.395172	1795.348389	1071.664673	188.801575	1603.785156	1186.453247	294.230194	1723.034424	866.518005	96.009003	1732.454346	871.243469	298.900421	1565.900757	906.473755	207.168777	1767.013062	697.729248	351.686707	1761.238281	632.058899	360.649933	1809.729248	647.593811	344.876556	1842.467407	507.980103	344.217102	1774.189209	383.313293	362.277283	1745.435791	324.530396	349.875122	1795.088745	320.422302	356.265015	1731.497070	128.410721	324.301422	1695.059204	119.828415	263.629395	1861.159180	86.902794	334.134369	1664.840942	670.365601	66.470047	1632.786255	612.621582	76.882957	1683.146362	610.167725	88.460686	1637.900757	464.204865	115.632057	1568.281128	333.008484	96.902298	1545.541382	271.987030	108.484924	1596.605103	275.478790	114.620728	1516.893921	98.542389	148.553162	1475.389526	95.016090	189.675964	1661.762817	65.987267	176.982574	1666.559171	811.869645	276.067921	1659.665080	808.411254	127.579240	
459	2.290000	1639.909790	1254.434814	197.823547	1594.082031	1070.642212	201.330139	1764.134644	1205.361938	194.518829	1801.689697	1070.886230	188.729462	1610.325439	1185.859253	294.355438	1728.851807	865.980835	96.096970	1738.989990	870.369385	299.066406	1572.254883	906.064819	207.898560	1773.110596	696.626831	351.677795	1767.259644	630.895447	359.919861	1815.873657	646.540222	344.723267	1848.439453	507.162292	343.393433	1783.984985	380.801117	362.209534	1757.394775	320.972534	349.919525	1807.164307	318.714844	356.216736	1750.671997	124.342117	324.871490	1714.542480	114.516991	264.182953	1881.588623	87.141579	335.034668	1668.848877	670.184509	66.611397	1636.201416	612.782898	77.058609	1686.537842	609.832458	88.588814	1639.955078	464.187012	115.566177	1569.686035	333.488770	97.074295	1546.714722	272.584351	108.670372	1597.771484	275.857574	114.804024	1517.026855	99.146896	148.825897	1475.659058	95.863029	190.038406	1661.804810	65.967720	176.917969	1672.903607	811.130569	276.352004	1665.484223	807.918915	127.813753	
460	2.295000	1646.504883	1253.831543	198.028595	1600.500366	1070.075928	201.721069	1770.701782	1204.615601	194.664139	1808.050049	1070.061035	188.682709	1616.883911	1185.223877	294.499817	1734.684448	865.427979	96.181961	1745.566284	869.442993	299.223022	1578.637939	905.615662	208.649078	1779.025757	695.298462	351.652100	1773.005249	629.517212	359.127716	1821.771118	645.205566	344.558075	1854.162964	506.156219	342.524109	1793.629883	378.273010	362.078949	1769.264893	317.463043	349.903015	1819.075928	317.068359	356.142120	1769.872192	120.582985	325.441772	1734.067261	109.519264	264.758881	1901.916138	87.755318	335.841949	1672.848267	669.997253	66.755287	1639.616821	612.929443	77.257774	1689.937500	609.492554	88.697609	1642.107422	464.160309	115.506660	1571.135620	333.987122	97.260208	1547.921997	273.210175	108.870750	1598.982056	276.250214	114.967621	1517.176636	99.782959	149.082870	1475.939575	96.744377	190.382828	1661.851929	65.949997	176.844070	1679.287328	810.342800	276.626144	1671.324114	807.404655	128.042808	
461	2.300000	1653.120972	1253.187134	198.251770	1606.939331	1069.468750	202.130005	1777.292114	1203.827026	194.832458	1814.431274	1069.192627	188.662827	1623.460938	1184.548828	294.664276	1740.534302	864.859314	96.261452	1752.185791	868.469421	299.365845	1585.052124	905.126709	209.419113	1784.760620	693.744568	351.606567	1778.470947	627.927917	358.291656	1827.413574	643.583923	344.374695	1859.649048	504.973297	341.613556	1803.109009	375.749298	361.871735	1781.021362	314.030426	349.807556	1830.796875	315.500183	356.042664	1789.052002	117.166862	326.005920	1753.590820	104.864769	265.351013	1922.097412	88.777626	336.546539	1676.849365	669.800903	66.901840	1643.046875	613.055908	77.476776	1693.358521	609.146790	88.790611	1644.362915	464.119446	115.451973	1572.622559	334.499786	97.454010	1549.152222	273.862000	109.082596	1600.226440	276.648956	115.098389	1517.344849	100.447151	149.318069	1476.231567	97.658394	190.701828	1661.902710	65.932411	176.761475	1685.713732	809.510346	276.887992	1677.187697	806.868632	128.265352	
462	2.305000	1659.758423	1252.503784	198.494110	1613.400391	1068.822266	202.556274	1783.906250	1202.999023	195.025146	1820.835327	1068.284790	188.671280	1630.057007	1183.835815	294.849579	1746.404297	864.274780	96.333252	1758.850952	867.454102	299.490906	1591.499268	904.598145	210.207230	1790.321655	691.969482	351.538788	1783.658569	626.134766	357.432983	1832.797363	641.673828	344.167511	1864.912842	503.627686	340.667236	1812.406616	373.248596	361.576965	1792.638184	310.700592	349.616913	1842.300903	314.025299	355.919861	1808.161011	114.122200	326.554810	1773.066895	100.580330	265.948822	1942.083496	90.232903	337.140533	1680.863892	669.592651	67.050140	1646.508301	613.156982	77.710419	1696.816284	608.793762	88.869530	1646.726562	464.059570	115.399956	1574.143433	335.022461	97.648766	1550.398682	274.536530	109.300591	1601.497803	277.045990	115.185692	1517.533203	101.136169	149.525970	1476.535767	98.603722	190.988678	1661.956177	65.913338	176.671463	1692.186287	808.637259	277.135324	1683.078794	806.310879	128.480374	
463	2.310000	1666.417236	1251.783813	198.756668	1619.885010	1068.138184	202.999054	1790.544312	1202.135132	195.243439	1827.264038	1067.341431	188.709473	1636.672485	1183.086792	295.056641	1752.297485	863.673767	96.395592	1765.563232	866.402344	299.594910	1597.981323	904.030457	211.011642	1795.720581	689.982422	351.447388	1788.576172	624.148987	356.575897	1837.924805	639.479431	343.932495	1869.972656	502.136292	339.691772	1821.508301	370.787201	361.187683	1804.088867	307.495911	349.318237	1853.562866	312.655701	355.774628	1827.145142	111.470947	327.076599	1792.446167	96.689270	266.537140	1961.820801	92.133789	337.618073	1684.904419	669.369385	67.198387	1650.018677	613.227722	77.952240	1700.326660	608.431946	88.934212	1649.203125	463.976440	115.348022	1575.700195	335.550385	97.837196	1551.660034	275.229675	109.518135	1602.793335	277.433929	115.221985	1517.743408	101.847137	149.701508	1476.853271	99.579605	191.237335	1662.011108	65.891472	176.575806	1698.707450	807.727630	277.366295	1689.001015	805.731154	128.687066	
